<!DOCTYPE svg PUBLIC "-//W3C//DTD SVG 1.1//EN" "http://www.w3.org/Graphics/SVG/1.1/DTD/svg11.dtd">

<!-- Uploaded to: SVG Repo, www.svgrepo.com, Transformed by: SVG Repo Mixer Tools -->
<svg fill="#0d31c5" height="64px" width="64px" version="1.1" id="Layer_1" xmlns="http://www.w3.org/2000/svg"
     viewBox="0 0 512 512" xml:space="preserve" stroke="#0d31c5">

<g id="SVGRepo_bgCarrier" stroke-width="0"/>

<g id="SVGRepo_tracerCarrier" stroke-linecap="round" stroke-linejoin="round"/>

<g id="SVGRepo_iconCarrier"> <g> <g> <g> <path d="M490.667,277.331h-128V170.665c0-11.782-9.551-21.333-21.333-21.333H170.667c-11.782,0-21.333,9.551-21.333,21.333 v106.667h-128C9.551,277.331,0,286.882,0,298.665v192c0,11.782,9.551,21.333,21.333,21.333h149.333h170.667h149.333 c11.782,0,21.333-9.551,21.333-21.333v-192C512,286.882,502.449,277.331,490.667,277.331z M42.667,319.998h106.667v149.333 H42.667V319.998z M192,298.665V191.998h128v106.667v170.667h-42.667v-64c0-11.782-9.551-21.333-21.333-21.333 s-21.333,9.551-21.333,21.333v64H192V298.665z M469.333,469.331H362.667V319.998h106.667V469.331z"/> <path d="M200.789,69.591l13.845,10.048l-5.291,16.256c-2.859,8.811,0.277,18.432,7.744,23.851c7.488,5.44,17.621,5.44,25.088,0 L256,109.698l13.824,10.048c3.733,2.731,8.128,4.075,12.544,4.075c4.395,0,8.811-1.344,12.544-4.075 c7.467-5.419,10.603-15.04,7.744-23.851l-5.269-16.256l13.824-10.048c7.488-5.44,10.603-15.061,7.744-23.851 c-2.837-8.789-11.051-14.741-20.288-14.741h-17.088l-5.291-16.256C273.451,5.954,265.237,0.002,256,0.002 s-17.429,5.952-20.288,14.741l-5.291,16.256h-17.088c-9.237,0-17.429,5.952-20.288,14.741 C190.187,54.53,193.323,64.151,200.789,69.591z"/> <path d="M234.667,255.998h42.667c11.782,0,21.333-9.551,21.333-21.333c0-11.782-9.551-21.333-21.333-21.333h-42.667 c-11.782,0-21.333,9.551-21.333,21.333C213.333,246.447,222.885,255.998,234.667,255.998z"/> <path d="M234.667,319.998h42.667c11.782,0,21.333-9.551,21.333-21.333c0-11.782-9.551-21.333-21.333-21.333h-42.667 c-11.782,0-21.333,9.551-21.333,21.333C213.333,310.447,222.885,319.998,234.667,319.998z"/> <path d="M106.667,341.331H85.333c-11.782,0-21.333,9.551-21.333,21.333s9.551,21.333,21.333,21.333h21.333 c11.782,0,21.333-9.551,21.333-21.333S118.449,341.331,106.667,341.331z"/> <path d="M106.667,405.331H85.333c-11.782,0-21.333,9.551-21.333,21.333s9.551,21.333,21.333,21.333h21.333 c11.782,0,21.333-9.551,21.333-21.333S118.449,405.331,106.667,405.331z"/> <path d="M405.333,383.998h21.333c11.782,0,21.333-9.551,21.333-21.333s-9.551-21.333-21.333-21.333h-21.333 c-11.782,0-21.333,9.551-21.333,21.333S393.551,383.998,405.333,383.998z"/> <path d="M405.333,447.998h21.333c11.782,0,21.333-9.551,21.333-21.333s-9.551-21.333-21.333-21.333h-21.333 c-11.782,0-21.333,9.551-21.333,21.333S393.551,447.998,405.333,447.998z"/> </g> </g> </g> </g>

</svg>